# xmcd
#
# Track frame offsets: 
#        150
#        15577
#        40185
#        54158
#        78172
#        95558
#        113616
#        135522
#
# Disc length: 2181 seconds
#
# Revision: 0
# Processed by: cddbd v1.5.2PL0 Copyright (c) Steve Scherf et al.
# Submitted via: ExactAudioCopy v1.3
#
DISCID=52088308
DTITLE=The Liza Colby Sound - Object To Impossible Destination
DYEAR=2019
DGENRE=Blues
TTITLE0=Cool Hand
TTITLE1=Creep On
TTITLE2=Try Me
TTITLE3=Young Girl
TTITLE4=Shake You
TTITLE5=Eye On You
TTITLE6=Oh Baby
TTITLE7=Zero To Freakout
EXTD=
EXTT0=
EXTT1=
EXTT2=
EXTT3=
EXTT4=
EXTT5=
EXTT6=
EXTT7=
PLAYORDER=
